<svg xmlns="http://www.w3.org/2000/svg" width="1280" height="720" viewBox="0 0 1280 720" version="1.1"><path d="M 277.998 260.845 C 277.997 261.205, 275.972 264.579, 273.498 268.343 C 271.024 272.107, 269 276.113, 269 277.246 C 269 279.490, 290.077 301.572, 293.149 302.547 C 297.618 303.966, 303.555 296.392, 313.173 277 L 316.893 269.500 313.040 267.753 C 306.743 264.898, 278.003 259.232, 277.998 260.845 M 209.500 270.744 C 207.300 271.597, 201.562 274.028, 196.749 276.147 C 187.410 280.258, 182.675 280.921, 179.992 278.493 C 178.497 277.140, 177.850 277.238, 173.704 279.443 C 165.568 283.769, 164.173 284.946, 164.718 287.030 C 165.804 291.181, 164.019 293.737, 156.314 299.063 C 152.071 301.997, 144.639 307.693, 139.800 311.721 L 131 319.045 131.009 325.272 C 131.013 328.698, 131.305 333.895, 131.656 336.821 C 132.271 341.940, 132.394 342.118, 134.881 341.494 C 139.554 340.321, 151.378 334.075, 158.072 329.243 C 161.687 326.635, 170.687 320.270, 178.072 315.100 C 195.127 303.162, 201.250 297.304, 205.580 288.781 C 208.447 283.139, 214.374 268.781, 213.705 269.097 C 213.592 269.151, 211.700 269.892, 209.500 270.744 M 206.241 348.268 C 198.463 355.404, 194.652 358.134, 187 362.051 C 178.564 366.370, 176.995 367.762, 177.023 370.905 C 177.035 372.332, 178.777 379.781, 180.893 387.458 C 185.461 404.028, 186.349 405.091, 193.563 402.633 C 196.104 401.767, 200.398 399.696, 203.106 398.030 C 205.814 396.363, 208.273 395, 208.570 395 C 209.599 395, 221.535 386.569, 228.560 380.880 C 242.413 369.661, 245.438 364.558, 240.750 360.310 C 236.051 356.052, 215.851 343, 213.960 343 C 212.873 343, 209.399 345.370, 206.241 348.268 M 113 357.211 C 98.901 358.073, 97.344 358.355, 95.774 360.329 C 93.334 363.398, 82.798 384.131, 83.382 384.715 C 83.648 384.982, 85.524 384.652, 87.550 383.984 C 93.117 382.146, 100.427 383.227, 105.320 386.610 C 108.912 389.093, 110.661 391.803, 117.750 405.866 C 126.517 423.258, 127.345 426.616, 124.973 435.157 C 123.710 439.703, 117.849 445.521, 112.526 447.511 C 107.916 449.234, 95.655 451.547, 82.341 453.204 L 73.182 454.344 73.692 457.922 C 75.689 471.906, 76.388 472.334, 94 470.372 C 119.673 467.513, 159.682 455.218, 184.099 442.685 L 188.698 440.324 186.099 439.171 C 179.746 436.352, 166.055 423.807, 158.630 414 C 154.488 408.529, 146 394.747, 146 393.493 C 146 393.131, 144.684 389.835, 143.075 386.168 C 141.467 382.500, 138.813 374.325, 137.179 368 C 133.697 354.527, 136.493 355.775, 113 357.211 M 273.411 401.102 C 272.360 402.264, 266.424 407.067, 260.221 411.774 C 248.502 420.667, 244.155 422.299, 241.578 418.776 C 240.589 417.423, 239.665 417.804, 234.540 421.679 C 230.707 424.576, 227.970 425.964, 226.728 425.639 C 224.963 425.177, 224.938 425.274, 226.408 426.898 C 228.216 428.896, 228.437 431.315, 227.050 433.907 C 226.116 435.651, 220.672 439.279, 210.216 445.125 C 207.309 446.750, 205.170 448.465, 205.461 448.937 C 207.259 451.846, 231.567 457.907, 249.708 459.968 L 258.327 460.947 263.913 457.202 C 266.986 455.142, 272.527 451.216, 276.226 448.478 L 282.951 443.500 282.354 439 C 280.924 428.238, 276.218 399.885, 275.790 399.457 C 275.532 399.199, 274.461 399.939, 273.411 401.102" stroke="none" fill="#c76d33" fill-rule="evenodd"/><path d="M 277.998 260.845 C 277.997 261.205, 275.972 264.579, 273.498 268.343 C 271.024 272.107, 269 276.113, 269 277.246 C 269 279.490, 290.077 301.572, 293.149 302.547 C 297.618 303.966, 303.555 296.392, 313.173 277 L 316.893 269.500 313.040 267.753 C 306.743 264.898, 278.003 259.232, 277.998 260.845 M 209.500 270.744 C 207.300 271.597, 201.562 274.028, 196.749 276.147 C 187.410 280.258, 182.675 280.921, 179.992 278.493 C 178.497 277.140, 177.850 277.238, 173.704 279.443 C 165.568 283.769, 164.173 284.946, 164.718 287.030 C 165.804 291.181, 164.019 293.737, 156.314 299.063 C 152.071 301.997, 144.639 307.693, 139.800 311.721 L 131 319.045 131.009 325.272 C 131.013 328.698, 131.305 333.895, 131.656 336.821 C 132.271 341.940, 132.394 342.118, 134.881 341.494 C 139.554 340.321, 151.378 334.075, 158.072 329.243 C 161.687 326.635, 170.687 320.270, 178.072 315.100 C 195.127 303.162, 201.250 297.304, 205.580 288.781 C 208.447 283.139, 214.374 268.781, 213.705 269.097 C 213.592 269.151, 211.700 269.892, 209.500 270.744 M 206.241 348.268 C 198.463 355.404, 194.652 358.134, 187 362.051 C 178.564 366.370, 176.995 367.762, 177.023 370.905 C 177.035 372.332, 178.777 379.781, 180.893 387.458 C 185.461 404.028, 186.349 405.091, 193.563 402.633 C 196.104 401.767, 200.398 399.696, 203.106 398.030 C 205.814 396.363, 208.273 395, 208.570 395 C 209.599 395, 221.535 386.569, 228.560 380.880 C 242.413 369.661, 245.438 364.558, 240.750 360.310 C 236.051 356.052, 215.851 343, 213.960 343 C 212.873 343, 209.399 345.370, 206.241 348.268 M 113 357.211 C 98.901 358.073, 97.344 358.355, 95.774 360.329 C 93.334 363.398, 82.798 384.131, 83.382 384.715 C 83.648 384.982, 85.524 384.652, 87.550 383.984 C 93.117 382.146, 100.427 383.227, 105.320 386.610 C 108.912 389.093, 110.661 391.803, 117.750 405.866 C 126.517 423.258, 127.345 426.616, 124.973 435.157 C 123.710 439.703, 117.849 445.521, 112.526 447.511 C 107.916 449.234, 95.655 451.547, 82.341 453.204 L 73.182 454.344 73.692 457.922 C 75.689 471.906, 76.388 472.334, 94 470.372 C 119.673 467.513, 159.682 455.218, 184.099 442.685 L 188.698 440.324 186.099 439.171 C 179.746 436.352, 166.055 423.807, 158.630 414 C 154.488 408.529, 146 394.747, 146 393.493 C 146 393.131, 144.684 389.835, 143.075 386.168 C 141.467 382.500, 138.813 374.325, 137.179 368 C 133.697 354.527, 136.493 355.775, 113 357.211 M 273.411 401.102 C 272.360 402.264, 266.424 407.067, 260.221 411.774 C 248.502 420.667, 244.155 422.299, 241.578 418.776 C 240.589 417.423, 239.665 417.804, 234.540 421.679 C 230.707 424.576, 227.970 425.964, 226.728 425.639 C 224.963 425.177, 224.938 425.274, 226.408 426.898 C 228.216 428.896, 228.437 431.315, 227.050 433.907 C 226.116 435.651, 220.672 439.279, 210.216 445.125 C 207.309 446.750, 205.170 448.465, 205.461 448.937 C 207.259 451.846, 231.567 457.907, 249.708 459.968 L 258.327 460.947 263.913 457.202 C 266.986 455.142, 272.527 451.216, 276.226 448.478 L 282.951 443.500 282.354 439 C 280.924 428.238, 276.218 399.885, 275.790 399.457 C 275.532 399.199, 274.461 399.939, 273.411 401.102" stroke="none" fill="#c76d33" fill-rule="evenodd"/><path d="M 280.500 292 C 285.979 297.500, 290.687 302, 290.962 302 C 291.237 302, 286.979 297.500, 281.500 292 C 276.021 286.500, 271.313 282, 271.038 282 C 270.763 282, 275.021 286.500, 280.500 292 M 266.500 297 C 270.320 300.850, 273.671 304, 273.946 304 C 274.221 304, 271.320 300.850, 267.500 297 C 263.680 293.150, 260.329 290, 260.054 290 C 259.779 290, 262.680 293.150, 266.500 297 M 123.649 325.607 C 112.563 336.586, 107.342 342.675, 108.242 343.575 C 108.528 343.861, 113.989 343.783, 120.377 343.401 L 131.992 342.707 131.342 331.331 C 130.716 320.357, 130.775 319.869, 133.021 317.478 C 134.301 316.115, 135.126 315, 134.854 315 C 134.582 315, 129.540 319.773, 123.649 325.607 M 83.801 398.767 L 77.101 400.280 75.029 409.105 C 73.890 413.959, 72.673 422.896, 72.326 428.965 L 71.694 440 76.716 440 C 82.814 440, 96.337 437.665, 104.500 435.202 C 109.033 433.834, 110.813 432.746, 111.778 430.751 C 112.952 428.325, 112.513 426.942, 106.403 413.805 C 102.743 405.937, 99.301 398.938, 98.752 398.250 C 97.486 396.663, 92.330 396.841, 83.801 398.767 M 269.500 403.661 C 263.614 409.138, 263.599 409.164, 268.747 405.031 C 271.633 402.715, 274.277 400.362, 274.622 399.803 C 275.016 399.165, 275.571 399.293, 276.110 400.143 C 276.779 401.200, 276.973 401.113, 276.985 399.750 C 277.008 397.084, 276.006 397.607, 269.500 403.661 M 197.500 451.290 C 188.178 456.196, 176.202 461.673, 170.500 463.639 L 166.500 465.018 166.500 481.934 L 166.500 498.850 169.500 498.313 C 179.474 496.526, 198.169 491.278, 208.500 487.364 C 224.243 481.400, 246.293 469.906, 258.668 461.213 C 259.675 460.505, 260.001 460.154, 259.392 460.434 C 257.701 461.210, 241.948 459.209, 229.046 456.579 C 216.554 454.032, 205.349 449.975, 205.750 448.143 C 206.070 446.682, 206.756 446.420, 197.500 451.290 M 234.336 508 C 234.336 512.125, 234.513 513.813, 234.728 511.750 C 234.944 509.688, 234.944 506.313, 234.728 504.250 C 234.513 502.188, 234.336 503.875, 234.336 508" stroke="none" fill="#a05423" fill-rule="evenodd"/><path d="M 395.258 148.108 C 387.892 149.335, 376.509 153.467, 370.012 157.272 C 366.980 159.048, 361.002 164.020, 356.726 168.322 C 347.482 177.623, 343.044 185.702, 339.427 199.815 C 335.262 216.060, 326.124 237.361, 318.497 248.599 C 317.097 250.663, 316.087 252.762, 316.254 253.263 C 316.421 253.764, 318.795 254.967, 321.529 255.936 C 330.463 259.102, 352.943 271.202, 353.032 272.892 C 353.049 273.226, 353.690 274.327, 354.456 275.337 C 355.793 277.101, 356.018 277.074, 360.174 274.643 C 367.429 270.398, 394.492 259.527, 406.616 255.987 C 437.028 247.107, 464.934 211.966, 461.485 186.892 L 460.819 182.051 457.160 184.902 C 452.357 188.643, 448.004 190, 440.805 190 C 435.878 190, 434.506 189.596, 432.455 187.545 C 429.361 184.452, 429.337 181.572, 432.381 178.529 C 434.353 176.556, 435.701 176.170, 440.247 176.276 C 446.391 176.420, 450.369 174.479, 452.211 170.437 C 453.167 168.339, 452.978 167.598, 450.915 165.357 C 445.745 159.742, 436.435 153.909, 428.788 151.493 C 415.266 147.221, 406.117 146.298, 395.258 148.108 M 390.145 171.070 C 385.722 172.841, 381.956 176.166, 379.977 180.044 C 377.297 185.298, 377.343 193.201, 380.080 197.629 L 382.160 200.995 378.741 204.990 C 369.956 215.253, 371.535 230.181, 381.985 235.652 C 397.587 243.821, 420.896 229.513, 420.978 211.718 C 421.035 199.248, 411.162 191.395, 398.327 193.702 C 393.432 194.581, 393.095 194.504, 392.077 192.269 C 390.530 188.874, 390.734 187.266, 393 185 C 395.691 182.309, 397.058 182.470, 401.500 186 C 405.917 189.510, 408.245 189.755, 411 187 C 419.126 178.874, 402.454 166.140, 390.145 171.070 M 346.433 314.130 C 343.386 320.023, 332.344 336.832, 326.197 344.937 L 322.832 349.374 326.767 351.437 C 334.796 355.647, 340 364.729, 340 374.533 C 340 386.288, 330.705 397.495, 314.662 405.082 C 309.370 407.585, 306.375 408.436, 295.139 410.633 C 292.852 411.079, 292.799 411.306, 293.464 417.797 C 294.523 428.126, 294.861 429, 297.791 429 C 299.206 429, 304.294 428.496, 309.097 427.880 C 316.697 426.905, 318.550 426.987, 323.383 428.507 C 342.399 434.488, 348.111 457.345, 334.284 472.127 C 326.454 480.499, 317.333 485.324, 301.250 489.605 C 299.283 490.128, 299.543 508.903, 301.557 511.777 C 304.982 516.668, 311.531 514.049, 328.938 500.825 C 347.486 486.734, 361.437 467.202, 368.853 444.941 C 372.349 434.449, 375 421.914, 375 415.880 C 375 410.156, 377.351 405.201, 380.434 404.427 C 383.273 403.715, 383.532 402.073, 382.352 392.250 C 381.867 388.215, 381.327 387, 380.016 387 C 377.251 387, 375.086 383.733, 374.005 377.930 C 372.441 369.532, 367.312 352.579, 362.869 341.126 C 358.815 330.676, 350.635 313.240, 349.034 311.635 C 348.548 311.149, 347.409 312.242, 346.433 314.130 M 279 463.576 C 269.400 470.918, 251.757 481.994, 241 487.431 C 237.975 488.959, 235.151 490.534, 234.725 490.930 C 234.298 491.326, 234.256 497.390, 234.631 504.405 C 235.276 516.469, 235.446 517.246, 237.758 518.761 C 240.989 520.878, 243.112 520.031, 255.897 511.520 C 265.321 505.246, 280.947 491.062, 284.633 485.437 C 285.989 483.368, 286.127 481.195, 285.521 471.493 C 285.126 465.172, 284.510 460.030, 284.151 460.067 C 283.793 460.104, 281.475 461.683, 279 463.576 M 143.500 473.640 C 139.650 475.011, 128.401 477.938, 118.503 480.146 C 108.605 482.354, 100.399 484.268, 100.268 484.398 C 99.795 484.872, 97.876 500.209, 98.244 500.577 C 98.451 500.785, 101.651 501.384, 105.355 501.908 C 113.364 503.042, 119.974 506.604, 122.921 511.372 C 126.042 516.422, 127.053 523.361, 125.526 529.248 C 122.377 541.387, 103.831 552.145, 84.140 553.254 C 79.934 553.491, 79.675 553.699, 76.860 559.107 C 73.647 565.281, 73.968 568.842, 77.929 570.962 C 82.758 573.546, 104.773 567.523, 116.482 560.414 C 133.772 549.917, 144.694 533.742, 150.525 510 C 152.771 500.853, 153.819 470.971, 151.890 471.074 C 151.126 471.115, 147.350 472.270, 143.500 473.640 M 50.125 485.780 C 37.546 498.262, 35.979 500.860, 38.905 504.386 C 42.569 508.801, 70.417 510.859, 81.008 507.497 C 82.783 506.934, 83.470 504.150, 85.356 489.867 L 85.836 486.234 80.383 485.782 C 74.289 485.276, 67.995 481.580, 64.515 476.463 L 62.500 473.500 50.125 485.780" stroke="none" fill="#7dce5c" fill-rule="evenodd"/><path d="M 388.500 135.447 C 385.200 136.111, 380.700 137.238, 378.500 137.950 C 362.717 143.060, 343.799 158.239, 335.440 172.500 C 330.631 180.703, 328.832 185.680, 322.504 208.279 C 320.653 214.890, 314.523 227.955, 308.794 237.500 C 301.186 250.175, 302.110 249.481, 294.789 248.024 C 286.759 246.425, 257.079 245.879, 246 247.126 C 226.190 249.355, 186.500 262.500, 180.025 268.975 C 177.087 271.913, 177.465 275.142, 181.023 277.500 C 184.292 279.667, 185.891 279.666, 190.500 277.497 C 197.887 274.020, 209.752 269.177, 212.371 268.568 C 215.109 267.932, 215.210 268.030, 214.548 270.701 C 214.167 272.240, 211.750 278.176, 209.177 283.891 C 205.493 292.075, 203.226 295.599, 198.500 300.487 C 195.200 303.900, 190.872 307.774, 188.882 309.096 C 185.276 311.492, 178.890 315.910, 167.500 323.890 C 142.794 341.199, 139.351 342.653, 120 343.951 C 113.125 344.412, 107.312 344.611, 107.082 344.393 C 104.667 342.105, 129.743 317.245, 148.330 303.500 C 152.049 300.750, 157.096 297.017, 159.546 295.204 C 163.456 292.311, 164 291.445, 164 288.115 C 164 285.020, 163.531 284.107, 161.453 283.161 C 157.572 281.392, 156.894 281.607, 148.399 287.292 C 131.964 298.293, 114.054 314.259, 101.199 329.369 C 92.967 339.046, 92.570 339.574, 85.301 350.500 C 73.752 367.860, 65.711 387.247, 61.452 408 C 59.127 419.333, 58.655 424.257, 58.518 438.673 L 58.354 455.847 55.450 459.673 C 53.852 461.778, 46.808 469.156, 39.797 476.070 C 32.275 483.486, 26.423 490.136, 25.524 492.288 C 22.004 500.712, 24.992 512.152, 31.912 516.751 C 39.035 521.486, 57.676 524.734, 70.711 523.512 L 78.016 522.828 77.113 525.164 C 74.950 530.762, 67.980 546.020, 64.935 551.824 C 60.246 560.760, 59.875 567.601, 63.678 574.963 C 68.616 584.522, 76.567 586.734, 94.500 583.537 C 110.475 580.689, 124.152 573.860, 136.991 562.320 C 147.912 552.504, 158.919 534.307, 161.985 521 C 163.822 513.025, 163.836 512.989, 165.227 512.589 C 165.927 512.387, 172.125 511.235, 179 510.027 C 189.049 508.262, 208.842 502.463, 218.116 498.567 C 219.529 497.974, 219.791 499.202, 220.197 508.317 C 220.598 517.342, 221.022 519.361, 223.345 523.326 C 226.599 528.878, 228.901 530.600, 235.750 532.605 C 240.501 533.996, 241.521 533.990, 246.479 532.549 C 252.874 530.690, 269.537 519.865, 278.998 511.423 L 285.493 505.627 286.155 510.250 C 287.052 516.522, 291.852 523.266, 297.296 525.901 C 306.113 530.170, 314.533 528.122, 328.731 518.256 C 353.279 501.199, 367.661 483.930, 378.547 458.443 C 385.089 443.127, 391.134 414.112, 388.969 408.418 C 387.561 404.715, 384.846 403.833, 380.907 405.799 C 377.789 407.356, 377.430 408.008, 376.671 413.500 C 375.685 420.641, 372.623 435.324, 370.520 443 C 368.711 449.605, 360.778 466.210, 355.497 474.449 C 350.365 482.456, 332.146 500.543, 323.500 506.213 C 311.347 514.185, 307.242 516.042, 304.272 514.913 C 299.725 513.184, 299.066 511.296, 299.032 499.894 L 299 489.287 305.268 487.741 C 322.830 483.407, 336.698 472.164, 340.718 459 C 343.836 448.791, 337.383 436.055, 326.029 430.009 C 323.224 428.515, 312.027 428.256, 301.398 429.439 L 294.296 430.229 293.639 426.946 C 293.278 425.141, 292.699 420.613, 292.353 416.886 C 291.641 409.223, 291.061 409.750, 301.500 408.558 C 313.680 407.168, 331.904 394.697, 336.651 384.503 C 342.261 372.455, 337.394 357.893, 325.750 351.892 C 323.688 350.829, 322 349.695, 322 349.372 C 322 349.049, 325.059 344.671, 328.797 339.643 C 335.483 330.649, 338.699 325.678, 344.356 315.592 C 348.061 308.988, 347.827 309.134, 350.082 312.015 C 356.040 319.626, 367.098 347.556, 372.440 368.492 C 376.231 383.345, 376.725 384.581, 379.374 385.851 C 383.060 387.617, 386.685 386.102, 387.612 382.408 C 389.165 376.220, 380.390 345.358, 371.147 324.500 C 367.138 315.451, 358.995 299.904, 357.018 297.522 C 356.309 296.667, 356.276 295.403, 356.920 293.709 C 357.646 291.800, 360.544 289.902, 368.669 286.012 C 378.510 281.300, 400.936 272, 402.458 272 C 405.495 272, 427.166 262.567, 433.500 258.489 C 453.472 245.628, 469.581 223.910, 473.614 204.409 C 475.736 194.148, 475.084 180.674, 472.094 173 C 465.201 155.312, 445.982 140.318, 424.525 135.889 C 414.204 133.759, 397.878 133.558, 388.500 135.447 M 386.816 149.395 C 371.742 153.385, 358.013 163.147, 348.236 176.828 C 344.889 181.511, 342.710 186.287, 339.856 195.198 C 337.735 201.821, 336 207.897, 336 208.700 C 336 212.888, 322.583 241.452, 316.986 249.177 C 315.321 251.477, 314.326 253.726, 314.776 254.176 C 315.226 254.626, 318.498 256.008, 322.047 257.247 C 332.030 260.732, 347.064 269.020, 351.571 273.523 L 355.643 277.590 366.071 272.688 C 377.747 267.200, 387.306 263.452, 403.500 258.013 C 422.359 251.678, 431.471 245.883, 443.778 232.394 C 455.378 219.681, 462 204.577, 462 190.835 C 462 181.041, 461.555 180.401, 457.143 183.845 C 452.351 187.584, 447.939 189, 441.073 189 C 432.146 189, 428.578 184.903, 432.557 179.223 C 433.897 177.309, 435.028 177, 440.689 177 C 446.933 177, 447.433 176.820, 450.632 173.429 C 452.484 171.465, 454 169.421, 454 168.888 C 454 165.520, 445.582 158.396, 435.225 153 C 423.618 146.952, 402.097 145.349, 386.816 149.395 M 392.764 170.965 C 386.897 172.798, 382.783 176.269, 380.392 181.404 C 379.087 184.207, 378.025 187.625, 378.032 189 C 378.053 193.318, 381.669 199.924, 384.627 201.048 C 387.981 202.324, 389.420 201.815, 391.517 198.614 C 393.036 196.297, 393.027 195.859, 391.397 192.424 C 389.847 189.157, 389.809 188.435, 391.071 186.218 C 393.756 181.503, 396.548 181.529, 403.314 186.330 C 405.576 187.935, 406.239 187.995, 408.697 186.823 C 411.828 185.329, 412.851 181.458, 411.019 178.035 C 408.370 173.085, 398.371 169.212, 392.764 170.965 M 246 260.477 C 233.160 261.956, 231.127 262.574, 230.011 265.336 C 229.530 266.526, 227.489 271.325, 225.474 276 C 223.460 280.675, 220.685 287.189, 219.307 290.475 C 217.928 293.762, 215.398 298.487, 213.682 300.975 C 207.003 310.667, 205.612 311.829, 176.500 332.045 C 171 335.864, 164.250 340.596, 161.500 342.559 C 147.726 352.394, 139.411 354.863, 115.128 356.330 L 95.756 357.500 91.746 364.500 C 86.489 373.676, 81.523 384.856, 82.339 385.673 C 82.696 386.029, 84.730 385.798, 86.860 385.160 C 93.462 383.182, 99.266 383.691, 103.594 386.628 C 105.724 388.074, 108.044 389.987, 108.750 390.878 C 110.447 393.024, 121.864 416.438, 123.621 421.376 C 126.513 429.504, 124.123 438.572, 117.859 443.230 C 112.818 446.979, 86.874 452.984, 75.671 452.996 C 72.028 453, 71.868 453.134, 72.386 455.750 C 72.686 457.262, 73.232 460.300, 73.599 462.500 C 74.559 468.249, 76.566 471.674, 79.390 472.383 C 82.007 473.040, 97.174 471.703, 105.500 470.081 C 124.849 466.314, 151.111 458.500, 164.279 452.592 C 167.457 451.167, 170.496 450, 171.032 450 C 173.049 450, 202.203 434.979, 212.441 428.664 C 218.671 424.822, 220.870 424.325, 224.066 426.035 C 225.398 426.748, 226 428.133, 226 430.484 C 226 434.752, 224.082 436.253, 206.500 445.742 C 192.123 453.501, 182.800 458.009, 173 461.942 L 166.500 464.551 166.226 481.907 L 165.952 499.263 170.226 498.584 C 198.633 494.068, 229.887 481.051, 260 461.195 C 269.694 454.804, 282.633 445.402, 283.364 444.221 C 284.306 442.695, 277.946 399.613, 276.576 398.243 C 276.287 397.954, 273.556 399.694, 270.506 402.109 C 250.656 417.828, 248.947 419, 245.873 419 C 242.029 419, 239.254 414.933, 240.793 411.555 C 241.385 410.255, 243.044 408.361, 244.479 407.346 C 252.732 401.506, 269.898 387.085, 280 377.503 C 292.777 365.385, 311.383 344.368, 319 333.450 C 333.705 312.371, 345 291.742, 345 285.963 C 345 283.928, 343.981 282.362, 341.250 280.200 C 337.853 277.512, 330.077 273.589, 329.430 274.237 C 329.286 274.382, 326.720 279.225, 323.728 285 C 311.227 309.131, 305.218 315.376, 294.500 315.376 C 291.673 315.376, 288.060 314.617, 286.187 313.630 C 281.316 311.062, 260.030 289.153, 257.887 284.500 C 256.873 282.300, 256.034 278.850, 256.022 276.833 C 255.999 273, 259.055 264.702, 260.912 263.554 C 261.504 263.188, 262.457 262.014, 263.030 260.944 C 263.980 259.170, 263.740 259.012, 260.285 259.134 C 258.203 259.208, 251.775 259.812, 246 260.477 M 273.021 266.968 C 270.259 271.174, 268 275.400, 268 276.358 C 268 279.646, 270.929 283.517, 280.856 293.350 C 289.769 302.178, 291.176 303.200, 294.427 303.200 C 296.422 303.200, 298.662 302.696, 299.405 302.079 C 302.383 299.607, 318 271.989, 318 269.194 C 318 267.522, 298.952 262.052, 288.271 260.656 L 278.042 259.320 273.021 266.968 M 208.105 331.156 C 206.233 331.695, 201.301 335.243, 197.105 339.071 C 189.155 346.324, 186.103 348.376, 177 352.593 C 171.501 355.140, 169.572 356.868, 165.941 362.500 C 163.141 366.845, 163.494 372.861, 167.420 387.632 C 169.301 394.709, 171.121 401.786, 171.466 403.357 C 171.810 404.928, 173.984 408.214, 176.296 410.659 C 183.729 418.519, 191.896 418.751, 205.500 411.488 C 221.784 402.794, 225.097 400.523, 241.021 387.146 C 252.293 377.678, 254.831 374.220, 255.662 367.207 C 256.663 358.757, 253.326 352.635, 244.462 346.657 C 242.703 345.471, 237.261 341.769, 232.370 338.431 C 220.060 330.030, 216.126 328.851, 208.105 331.156 M 209.750 343.572 C 208.238 344.393, 207 345.473, 207 345.973 C 207 347.579, 194.914 356.344, 185.566 361.519 C 174.769 367.496, 174.519 368.191, 178.299 381.772 C 179.635 386.573, 181.271 393.084, 181.934 396.242 C 184.087 406.496, 187.965 407.261, 201.429 400.089 C 215.854 392.405, 225.851 385.285, 237.819 374.170 C 243.723 368.688, 244.118 368.048, 243.819 364.441 C 243.461 360.115, 245.208 361.603, 220.610 344.677 C 216.228 341.661, 213.740 341.408, 209.750 343.572 M 299.654 374.539 L 286.808 388.030 288.004 393.015 C 289.172 397.887, 289.284 398, 292.918 398 C 301.898 398, 314.242 392.421, 321.390 385.133 C 325.612 380.828, 326.344 379.478, 326.751 375.239 C 327.323 369.284, 325.266 364.706, 321.033 362.517 C 314.782 359.285, 313.485 360.014, 299.654 374.539 M 84.782 397.883 C 81.087 398.793, 77.605 399.995, 77.044 400.556 C 75.352 402.248, 72.049 419.826, 71.341 430.910 L 70.676 441.321 78.269 440.679 C 82.445 440.326, 91.181 438.899, 97.681 437.507 C 110.305 434.805, 113 433.179, 113 428.263 C 113 425.244, 100.510 399.028, 98.225 397.250 C 96.192 395.669, 93.209 395.809, 84.782 397.883 M 303.129 441.247 L 295.758 442.306 296.401 447.403 C 296.755 450.206, 297.331 457.829, 297.680 464.342 C 298.102 472.227, 298.722 476.340, 299.534 476.652 C 302.091 477.633, 316.493 471.046, 321.631 466.547 C 330.656 458.642, 331.910 450.120, 325.017 443.516 C 322.493 441.099, 321.065 440.592, 316.251 440.408 C 313.088 440.287, 307.183 440.665, 303.129 441.247 M 280.426 461.658 C 263.593 473.266, 256.804 477.518, 240.500 486.662 L 233.500 490.588 233.248 502.044 C 232.969 514.743, 233.802 517.658, 238.329 519.829 C 240.825 521.025, 241.617 520.889, 246.300 518.455 C 256.918 512.937, 265.770 506.209, 276.321 495.637 L 287.162 484.773 286.469 472.637 C 286.088 465.961, 285.455 460.152, 285.063 459.726 C 284.672 459.300, 282.585 460.169, 280.426 461.658 M 147 471.615 C 143.013 473.365, 110.867 481.489, 103.878 482.512 L 99.257 483.189 98.598 489.623 C 98.235 493.163, 97.677 497.363, 97.358 498.958 L 96.779 501.857 103.984 502.567 C 113.539 503.509, 119.356 507.241, 123.250 514.929 C 126.609 521.561, 126.686 525.009, 123.617 531.500 C 120.953 537.134, 117.771 540.326, 110.500 544.654 C 102.249 549.565, 94.027 551.907, 84.823 551.964 L 79.147 552 76.573 557.621 C 73.572 564.176, 73.384 566.676, 75.650 569.910 C 77.190 572.110, 77.772 572.230, 84.421 571.727 C 96.523 570.812, 105.945 567.743, 116.850 561.163 C 133.494 551.122, 144.719 535.338, 150.162 514.326 C 152.767 504.273, 153.303 500.063, 153.743 486.250 C 154.323 468.011, 154.472 468.335, 147 471.615 M 49.660 484.839 C 37.827 496.699, 36.874 497.932, 37.175 500.991 C 37.591 505.231, 40.862 507.674, 47.886 508.991 C 53.802 510.099, 73.347 510.334, 79.198 509.367 C 82.831 508.766, 82.921 508.641, 84.373 502.128 C 85.186 498.482, 86.169 492.849, 86.558 489.608 L 87.266 483.716 84.664 484.369 C 81.133 485.256, 73.494 483.425, 70.027 480.862 C 68.465 479.707, 66.367 477.241, 65.366 475.381 C 64.365 473.521, 63.304 472, 63.008 472 C 62.713 472, 56.706 477.778, 49.660 484.839 M 93.550 515.107 C 93.276 515.873, 92.606 518.562, 92.059 521.083 C 91.513 523.603, 89.702 528.708, 88.033 532.426 C 86.365 536.144, 85 539.432, 85 539.733 C 85 540.033, 87.359 539.999, 90.241 539.658 C 100.432 538.451, 114 529.461, 114 523.916 C 114 521.019, 111.375 516.359, 109.287 515.549 C 108.304 515.167, 104.473 514.599, 100.774 514.285 C 95.542 513.841, 93.936 514.024, 93.550 515.107" stroke="none" fill="#000000" fill-rule="evenodd"/><path d="M 309.756 365.250 C 307.840 367.587, 302.153 373.649, 297.119 378.720 C 288.001 387.905, 287.969 387.955, 288.615 391.992 C 288.971 394.221, 289.574 396.237, 289.954 396.472 C 290.335 396.707, 293.763 396.463, 297.573 395.929 C 306.468 394.683, 314.151 390.834, 320.750 384.316 C 325.591 379.535, 326 378.767, 326 374.470 C 326 368.842, 323.199 364.399, 318.383 362.387 C 313.763 360.456, 313.658 360.491, 309.756 365.250 M 311 441.659 C 309.075 441.846, 305.088 442.263, 302.141 442.585 L 296.781 443.171 297.529 450.836 C 297.940 455.051, 298.552 462.325, 298.888 467 C 299.488 475.335, 299.549 475.495, 302 475.222 C 309.824 474.352, 323.987 464.638, 327.678 457.612 C 331.273 450.766, 324.131 440.455, 316.282 441.160 C 315.302 441.248, 312.925 441.473, 311 441.659 M 91.239 527.250 C 88.812 534.159, 87.574 539, 88.235 539 C 88.853 539, 92.516 537.987, 96.375 536.750 C 105.339 533.876, 113.675 526.826, 112.701 522.944 C 111.398 517.755, 109.608 516.565, 102.277 516.017 L 95.367 515.500 91.239 527.250" stroke="none" fill="#f1e12b" fill-rule="evenodd"/><path d="M 388.500 135.447 C 385.200 136.111, 380.700 137.238, 378.500 137.950 C 362.717 143.060, 343.799 158.239, 335.440 172.500 C 330.631 180.703, 328.832 185.680, 322.504 208.279 C 320.653 214.890, 314.523 227.955, 308.794 237.500 C 301.186 250.175, 302.110 249.481, 294.789 248.024 C 286.759 246.425, 257.079 245.879, 246 247.126 C 226.190 249.355, 186.500 262.500, 180.025 268.975 C 177.087 271.913, 177.465 275.142, 181.023 277.500 C 184.292 279.667, 185.891 279.666, 190.500 277.497 C 197.887 274.020, 209.752 269.177, 212.371 268.568 C 215.109 267.932, 215.210 268.030, 214.548 270.701 C 214.167 272.240, 211.750 278.176, 209.177 283.891 C 205.493 292.075, 203.226 295.599, 198.500 300.487 C 195.200 303.900, 190.872 307.774, 188.882 309.096 C 185.276 311.492, 178.890 315.910, 167.500 323.890 C 142.794 341.199, 139.351 342.653, 120 343.951 C 113.125 344.412, 107.312 344.611, 107.082 344.393 C 104.667 342.105, 129.743 317.245, 148.330 303.500 C 152.049 300.750, 157.096 297.017, 159.546 295.204 C 163.456 292.311, 164 291.445, 164 288.115 C 164 285.020, 163.531 284.107, 161.453 283.161 C 157.572 281.392, 156.894 281.607, 148.399 287.292 C 131.964 298.293, 114.054 314.259, 101.199 329.369 C 92.967 339.046, 92.570 339.574, 85.301 350.500 C 73.752 367.860, 65.711 387.247, 61.452 408 C 59.127 419.333, 58.655 424.257, 58.518 438.673 L 58.354 455.847 55.450 459.673 C 53.852 461.778, 46.808 469.156, 39.797 476.070 C 32.275 483.486, 26.423 490.136, 25.524 492.288 C 22.004 500.712, 24.992 512.152, 31.912 516.751 C 39.035 521.486, 57.676 524.734, 70.711 523.512 L 78.016 522.828 77.113 525.164 C 74.950 530.762, 67.980 546.020, 64.935 551.824 C 60.246 560.760, 59.875 567.601, 63.678 574.963 C 68.616 584.522, 76.567 586.734, 94.500 583.537 C 110.475 580.689, 124.152 573.860, 136.991 562.320 C 147.912 552.504, 158.919 534.307, 161.985 521 C 163.822 513.025, 163.836 512.989, 165.227 512.589 C 165.927 512.387, 172.125 511.235, 179 510.027 C 189.049 508.262, 208.842 502.463, 218.116 498.567 C 219.529 497.974, 219.791 499.202, 220.197 508.317 C 220.598 517.342, 221.022 519.361, 223.345 523.326 C 226.599 528.878, 228.901 530.600, 235.750 532.605 C 240.501 533.996, 241.521 533.990, 246.479 532.549 C 252.874 530.690, 269.537 519.865, 278.998 511.423 L 285.493 505.627 286.155 510.250 C 287.052 516.522, 291.852 523.266, 297.296 525.901 C 306.113 530.170, 314.533 528.122, 328.731 518.256 C 353.279 501.199, 367.661 483.930, 378.547 458.443 C 385.089 443.127, 391.134 414.112, 388.969 408.418 C 387.561 404.715, 384.846 403.833, 380.907 405.799 C 377.789 407.356, 377.430 408.008, 376.671 413.500 C 375.685 420.641, 372.623 435.324, 370.520 443 C 368.711 449.605, 360.778 466.210, 355.497 474.449 C 350.365 482.456, 332.146 500.543, 323.500 506.213 C 311.347 514.185, 307.242 516.042, 304.272 514.913 C 299.725 513.184, 299.066 511.296, 299.032 499.894 L 299 489.287 305.268 487.741 C 322.830 483.407, 336.698 472.164, 340.718 459 C 343.836 448.791, 337.383 436.055, 326.029 430.009 C 323.224 428.515, 312.027 428.256, 301.398 429.439 L 294.296 430.229 293.639 426.946 C 293.278 425.141, 292.699 420.613, 292.353 416.886 C 291.641 409.223, 291.061 409.750, 301.500 408.558 C 313.680 407.168, 331.904 394.697, 336.651 384.503 C 342.261 372.455, 337.394 357.893, 325.750 351.892 C 323.688 350.829, 322 349.695, 322 349.372 C 322 349.049, 325.059 344.671, 328.797 339.643 C 335.483 330.649, 338.699 325.678, 344.356 315.592 C 348.061 308.988, 347.827 309.134, 350.082 312.015 C 356.040 319.626, 367.098 347.556, 372.440 368.492 C 376.231 383.345, 376.725 384.581, 379.374 385.851 C 383.060 387.617, 386.685 386.102, 387.612 382.408 C 389.165 376.220, 380.390 345.358, 371.147 324.500 C 367.138 315.451, 358.995 299.904, 357.018 297.522 C 356.309 296.667, 356.276 295.403, 356.920 293.709 C 357.646 291.800, 360.544 289.902, 368.669 286.012 C 378.510 281.300, 400.936 272, 402.458 272 C 405.495 272, 427.166 262.567, 433.500 258.489 C 453.472 245.628, 469.581 223.910, 473.614 204.409 C 475.736 194.148, 475.084 180.674, 472.094 173 C 465.201 155.312, 445.982 140.318, 424.525 135.889 C 414.204 133.759, 397.878 133.558, 388.500 135.447 M 386.816 149.395 C 371.742 153.385, 358.013 163.147, 348.236 176.828 C 344.889 181.511, 342.710 186.287, 339.856 195.198 C 337.735 201.821, 336 207.897, 336 208.700 C 336 212.888, 322.583 241.452, 316.986 249.177 C 315.321 251.477, 314.326 253.726, 314.776 254.176 C 315.226 254.626, 318.498 256.008, 322.047 257.247 C 332.030 260.732, 347.064 269.020, 351.571 273.523 L 355.643 277.590 366.071 272.688 C 377.747 267.200, 387.306 263.452, 403.500 258.013 C 422.359 251.678, 431.471 245.883, 443.778 232.394 C 455.378 219.681, 462 204.577, 462 190.835 C 462 181.041, 461.555 180.401, 457.143 183.845 C 452.351 187.584, 447.939 189, 441.073 189 C 432.146 189, 428.578 184.903, 432.557 179.223 C 433.897 177.309, 435.028 177, 440.689 177 C 446.933 177, 447.433 176.820, 450.632 173.429 C 452.484 171.465, 454 169.421, 454 168.888 C 454 165.520, 445.582 158.396, 435.225 153 C 423.618 146.952, 402.097 145.349, 386.816 149.395 M 392.764 170.965 C 386.897 172.798, 382.783 176.269, 380.392 181.404 C 379.087 184.207, 378.025 187.625, 378.032 189 C 378.053 193.318, 381.669 199.924, 384.627 201.048 C 387.981 202.324, 389.420 201.815, 391.517 198.614 C 393.036 196.297, 393.027 195.859, 391.397 192.424 C 389.847 189.157, 389.809 188.435, 391.071 186.218 C 393.756 181.503, 396.548 181.529, 403.314 186.330 C 405.576 187.935, 406.239 187.995, 408.697 186.823 C 411.828 185.329, 412.851 181.458, 411.019 178.035 C 408.370 173.085, 398.371 169.212, 392.764 170.965 M 246 260.477 C 233.160 261.956, 231.127 262.574, 230.011 265.336 C 229.530 266.526, 227.489 271.325, 225.474 276 C 223.460 280.675, 220.685 287.189, 219.307 290.475 C 217.928 293.762, 215.398 298.487, 213.682 300.975 C 207.003 310.667, 205.612 311.829, 176.500 332.045 C 171 335.864, 164.250 340.596, 161.500 342.559 C 147.726 352.394, 139.411 354.863, 115.128 356.330 L 95.756 357.500 91.746 364.500 C 86.489 373.676, 81.523 384.856, 82.339 385.673 C 82.696 386.029, 84.730 385.798, 86.860 385.160 C 93.462 383.182, 99.266 383.691, 103.594 386.628 C 105.724 388.074, 108.044 389.987, 108.750 390.878 C 110.447 393.024, 121.864 416.438, 123.621 421.376 C 126.513 429.504, 124.123 438.572, 117.859 443.230 C 112.818 446.979, 86.874 452.984, 75.671 452.996 C 72.028 453, 71.868 453.134, 72.386 455.750 C 72.686 457.262, 73.232 460.300, 73.599 462.500 C 74.559 468.249, 76.566 471.674, 79.390 472.383 C 82.007 473.040, 97.174 471.703, 105.500 470.081 C 124.849 466.314, 151.111 458.500, 164.279 452.592 C 167.457 451.167, 170.496 450, 171.032 450 C 173.049 450, 202.203 434.979, 212.441 428.664 C 218.671 424.822, 220.870 424.325, 224.066 426.035 C 225.398 426.748, 226 428.133, 226 430.484 C 226 434.752, 224.082 436.253, 206.500 445.742 C 192.123 453.501, 182.800 458.009, 173 461.942 L 166.500 464.551 166.226 481.907 L 165.952 499.263 170.226 498.584 C 198.633 494.068, 229.887 481.051, 260 461.195 C 269.694 454.804, 282.633 445.402, 283.364 444.221 C 284.306 442.695, 277.946 399.613, 276.576 398.243 C 276.287 397.954, 273.556 399.694, 270.506 402.109 C 250.656 417.828, 248.947 419, 245.873 419 C 242.029 419, 239.254 414.933, 240.793 411.555 C 241.385 410.255, 243.044 408.361, 244.479 407.346 C 252.732 401.506, 269.898 387.085, 280 377.503 C 292.777 365.385, 311.383 344.368, 319 333.450 C 333.705 312.371, 345 291.742, 345 285.963 C 345 283.928, 343.981 282.362, 341.250 280.200 C 337.853 277.512, 330.077 273.589, 329.430 274.237 C 329.286 274.382, 326.720 279.225, 323.728 285 C 311.227 309.131, 305.218 315.376, 294.500 315.376 C 291.673 315.376, 288.060 314.617, 286.187 313.630 C 281.316 311.062, 260.030 289.153, 257.887 284.500 C 256.873 282.300, 256.034 278.850, 256.022 276.833 C 255.999 273, 259.055 264.702, 260.912 263.554 C 261.504 263.188, 262.457 262.014, 263.030 260.944 C 263.980 259.170, 263.740 259.012, 260.285 259.134 C 258.203 259.208, 251.775 259.812, 246 260.477 M 273.021 266.968 C 270.259 271.174, 268 275.400, 268 276.358 C 268 279.646, 270.929 283.517, 280.856 293.350 C 289.769 302.178, 291.176 303.200, 294.427 303.200 C 296.422 303.200, 298.662 302.696, 299.405 302.079 C 302.383 299.607, 318 271.989, 318 269.194 C 318 267.522, 298.952 262.052, 288.271 260.656 L 278.042 259.320 273.021 266.968 M 208.105 331.156 C 206.233 331.695, 201.301 335.243, 197.105 339.071 C 189.155 346.324, 186.103 348.376, 177 352.593 C 171.501 355.140, 169.572 356.868, 165.941 362.500 C 163.141 366.845, 163.494 372.861, 167.420 387.632 C 169.301 394.709, 171.121 401.786, 171.466 403.357 C 171.810 404.928, 173.984 408.214, 176.296 410.659 C 183.729 418.519, 191.896 418.751, 205.500 411.488 C 221.784 402.794, 225.097 400.523, 241.021 387.146 C 252.293 377.678, 254.831 374.220, 255.662 367.207 C 256.663 358.757, 253.326 352.635, 244.462 346.657 C 242.703 345.471, 237.261 341.769, 232.370 338.431 C 220.060 330.030, 216.126 328.851, 208.105 331.156 M 209.750 343.572 C 208.238 344.393, 207 345.473, 207 345.973 C 207 347.579, 194.914 356.344, 185.566 361.519 C 174.769 367.496, 174.519 368.191, 178.299 381.772 C 179.635 386.573, 181.271 393.084, 181.934 396.242 C 184.087 406.496, 187.965 407.261, 201.429 400.089 C 215.854 392.405, 225.851 385.285, 237.819 374.170 C 243.723 368.688, 244.118 368.048, 243.819 364.441 C 243.461 360.115, 245.208 361.603, 220.610 344.677 C 216.228 341.661, 213.740 341.408, 209.750 343.572 M 299.654 374.539 L 286.808 388.030 288.004 393.015 C 289.172 397.887, 289.284 398, 292.918 398 C 301.898 398, 314.242 392.421, 321.390 385.133 C 325.612 380.828, 326.344 379.478, 326.751 375.239 C 327.323 369.284, 325.266 364.706, 321.033 362.517 C 314.782 359.285, 313.485 360.014, 299.654 374.539 M 84.782 397.883 C 81.087 398.793, 77.605 399.995, 77.044 400.556 C 75.352 402.248, 72.049 419.826, 71.341 430.910 L 70.676 441.321 78.269 440.679 C 82.445 440.326, 91.181 438.899, 97.681 437.507 C 110.305 434.805, 113 433.179, 113 428.263 C 113 425.244, 100.510 399.028, 98.225 397.250 C 96.192 395.669, 93.209 395.809, 84.782 397.883 M 303.129 441.247 L 295.758 442.306 296.401 447.403 C 296.755 450.206, 297.331 457.829, 297.680 464.342 C 298.102 472.227, 298.722 476.340, 299.534 476.652 C 302.091 477.633, 316.493 471.046, 321.631 466.547 C 330.656 458.642, 331.910 450.120, 325.017 443.516 C 322.493 441.099, 321.065 440.592, 316.251 440.408 C 313.088 440.287, 307.183 440.665, 303.129 441.247 M 280.426 461.658 C 263.593 473.266, 256.804 477.518, 240.500 486.662 L 233.500 490.588 233.248 502.044 C 232.969 514.743, 233.802 517.658, 238.329 519.829 C 240.825 521.025, 241.617 520.889, 246.300 518.455 C 256.918 512.937, 265.770 506.209, 276.321 495.637 L 287.162 484.773 286.469 472.637 C 286.088 465.961, 285.455 460.152, 285.063 459.726 C 284.672 459.300, 282.585 460.169, 280.426 461.658 M 147 471.615 C 143.013 473.365, 110.867 481.489, 103.878 482.512 L 99.257 483.189 98.598 489.623 C 98.235 493.163, 97.677 497.363, 97.358 498.958 L 96.779 501.857 103.984 502.567 C 113.539 503.509, 119.356 507.241, 123.250 514.929 C 126.609 521.561, 126.686 525.009, 123.617 531.500 C 120.953 537.134, 117.771 540.326, 110.500 544.654 C 102.249 549.565, 94.027 551.907, 84.823 551.964 L 79.147 552 76.573 557.621 C 73.572 564.176, 73.384 566.676, 75.650 569.910 C 77.190 572.110, 77.772 572.230, 84.421 571.727 C 96.523 570.812, 105.945 567.743, 116.850 561.163 C 133.494 551.122, 144.719 535.338, 150.162 514.326 C 152.767 504.273, 153.303 500.063, 153.743 486.250 C 154.323 468.011, 154.472 468.335, 147 471.615 M 49.660 484.839 C 37.827 496.699, 36.874 497.932, 37.175 500.991 C 37.591 505.231, 40.862 507.674, 47.886 508.991 C 53.802 510.099, 73.347 510.334, 79.198 509.367 C 82.831 508.766, 82.921 508.641, 84.373 502.128 C 85.186 498.482, 86.169 492.849, 86.558 489.608 L 87.266 483.716 84.664 484.369 C 81.133 485.256, 73.494 483.425, 70.027 480.862 C 68.465 479.707, 66.367 477.241, 65.366 475.381 C 64.365 473.521, 63.304 472, 63.008 472 C 62.713 472, 56.706 477.778, 49.660 484.839 M 93.550 515.107 C 93.276 515.873, 92.606 518.562, 92.059 521.083 C 91.513 523.603, 89.702 528.708, 88.033 532.426 C 86.365 536.144, 85 539.432, 85 539.733 C 85 540.033, 87.359 539.999, 90.241 539.658 C 100.432 538.451, 114 529.461, 114 523.916 C 114 521.019, 111.375 516.359, 109.287 515.549 C 108.304 515.167, 104.473 514.599, 100.774 514.285 C 95.542 513.841, 93.936 514.024, 93.550 515.107" stroke="none" fill="#000000" fill-rule="evenodd"/><path d="M 277.998 260.845 C 277.997 261.205, 275.972 264.579, 273.498 268.343 C 271.024 272.107, 269 276.113, 269 277.246 C 269 279.490, 290.077 301.572, 293.149 302.547 C 297.618 303.966, 303.555 296.392, 313.173 277 L 316.893 269.500 313.040 267.753 C 306.743 264.898, 278.003 259.232, 277.998 260.845 M 209.500 270.744 C 207.300 271.597, 201.562 274.028, 196.749 276.147 C 187.410 280.258, 182.675 280.921, 179.992 278.493 C 178.497 277.140, 177.850 277.238, 173.704 279.443 C 165.568 283.769, 164.173 284.946, 164.718 287.030 C 165.804 291.181, 164.019 293.737, 156.314 299.063 C 152.071 301.997, 144.639 307.693, 139.800 311.721 L 131 319.045 131.009 325.272 C 131.013 328.698, 131.305 333.895, 131.656 336.821 C 132.271 341.940, 132.394 342.118, 134.881 341.494 C 139.554 340.321, 151.378 334.075, 158.072 329.243 C 161.687 326.635, 170.687 320.270, 178.072 315.100 C 195.127 303.162, 201.250 297.304, 205.580 288.781 C 208.447 283.139, 214.374 268.781, 213.705 269.097 C 213.592 269.151, 211.700 269.892, 209.500 270.744 M 206.241 348.268 C 198.463 355.404, 194.652 358.134, 187 362.051 C 178.564 366.370, 176.995 367.762, 177.023 370.905 C 177.035 372.332, 178.777 379.781, 180.893 387.458 C 185.461 404.028, 186.349 405.091, 193.563 402.633 C 196.104 401.767, 200.398 399.696, 203.106 398.030 C 205.814 396.363, 208.273 395, 208.570 395 C 209.599 395, 221.535 386.569, 228.560 380.880 C 242.413 369.661, 245.438 364.558, 240.750 360.310 C 236.051 356.052, 215.851 343, 213.960 343 C 212.873 343, 209.399 345.370, 206.241 348.268 M 113 357.211 C 98.901 358.073, 97.344 358.355, 95.774 360.329 C 93.334 363.398, 82.798 384.131, 83.382 384.715 C 83.648 384.982, 85.524 384.652, 87.550 383.984 C 93.117 382.146, 100.427 383.227, 105.320 386.610 C 108.912 389.093, 110.661 391.803, 117.750 405.866 C 126.517 423.258, 127.345 426.616, 124.973 435.157 C 123.710 439.703, 117.849 445.521, 112.526 447.511 C 107.916 449.234, 95.655 451.547, 82.341 453.204 L 73.182 454.344 73.692 457.922 C 75.689 471.906, 76.388 472.334, 94 470.372 C 119.673 467.513, 159.682 455.218, 184.099 442.685 L 188.698 440.324 186.099 439.171 C 179.746 436.352, 166.055 423.807, 158.630 414 C 154.488 408.529, 146 394.747, 146 393.493 C 146 393.131, 144.684 389.835, 143.075 386.168 C 141.467 382.500, 138.813 374.325, 137.179 368 C 133.697 354.527, 136.493 355.775, 113 357.211 M 273.411 401.102 C 272.360 402.264, 266.424 407.067, 260.221 411.774 C 248.502 420.667, 244.155 422.299, 241.578 418.776 C 240.589 417.423, 239.665 417.804, 234.540 421.679 C 230.707 424.576, 227.970 425.964, 226.728 425.639 C 224.963 425.177, 224.938 425.274, 226.408 426.898 C 228.216 428.896, 228.437 431.315, 227.050 433.907 C 226.116 435.651, 220.672 439.279, 210.216 445.125 C 207.309 446.750, 205.170 448.465, 205.461 448.937 C 207.259 451.846, 231.567 457.907, 249.708 459.968 L 258.327 460.947 263.913 457.202 C 266.986 455.142, 272.527 451.216, 276.226 448.478 L 282.951 443.500 282.354 439 C 280.924 428.238, 276.218 399.885, 275.790 399.457 C 275.532 399.199, 274.461 399.939, 273.411 401.102" stroke="none" fill="#c76d33" fill-rule="evenodd"/><path d="M 249 261.059 C 245.975 261.508, 240.816 262.472, 237.536 263.202 L 231.573 264.530 228.394 272.015 C 226.645 276.132, 223.591 283.309, 221.606 287.965 C 219.622 292.621, 216.371 298.880, 214.383 301.874 C 207.837 311.733, 206.147 313.122, 173.352 335.596 C 167.657 339.500, 162.210 343.367, 161.248 344.191 C 157.283 347.589, 147.084 352.555, 141 354.049 C 133.286 355.944, 133.394 355.162, 138.466 372.321 C 143.614 389.736, 149.071 401.216, 157.803 413 C 161.401 417.855, 176.977 434, 178.064 434 C 178.427 434, 180.424 435.350, 182.500 437 C 184.576 438.650, 187.226 439.999, 188.388 439.997 C 189.549 439.996, 193.110 438.421, 196.300 436.497 C 199.490 434.574, 202.415 432.997, 202.800 432.993 C 203.185 432.990, 206.650 430.940, 210.500 428.438 C 217.631 423.804, 220.153 423.334, 226.541 425.448 C 228.032 425.942, 230.135 424.973, 234.347 421.853 C 239.086 418.341, 240.012 417.184, 239.551 415.348 C 238.695 411.938, 240.774 408.497, 245.874 404.882 C 255.153 398.306, 273.373 382.568, 284 371.951 C 308.316 347.655, 324.245 326.385, 339.132 298.326 C 346.063 285.265, 345.798 283.688, 335.729 278.057 L 329.958 274.829 326.224 282.665 C 320.139 295.433, 312.162 307.918, 307.347 312.212 C 301.940 317.032, 292.477 318.319, 286.210 315.086 C 281.631 312.723, 258.899 289.759, 256.522 285.094 C 253.728 279.609, 254.756 270.218, 258.776 264.516 L 261.959 260 258.229 260.122 C 256.178 260.189, 252.025 260.611, 249 261.059 M 205.002 331.083 C 203.077 332.287, 198.472 336.079, 194.766 339.510 C 190.570 343.395, 185.101 347.170, 180.265 349.522 C 171.369 353.846, 167.615 356.947, 164.908 362.210 C 162.210 367.455, 162.507 372.249, 166.549 388.768 C 171.294 408.159, 173.545 412.263, 181.700 416.383 C 187.967 419.549, 194.039 418.574, 205.929 412.492 C 219.801 405.396, 234.507 395.189, 244.774 385.530 C 253.779 377.060, 256.430 373.335, 257.421 367.765 C 258.964 359.085, 254.642 352.264, 242.142 343.653 C 220.354 328.644, 222.086 329.567, 215.032 329.217 C 209.679 328.952, 207.868 329.289, 205.002 331.083" stroke="none" fill="#df8a57" fill-rule="evenodd"/><path d="M 611.493 99.250 C 611.193 100.487, 611.072 127.150, 611.224 158.500 L 611.500 215.500 648 215.500 C 684.141 215.500, 684.542 215.477, 688.795 213.207 C 699.164 207.670, 705.456 198.569, 706.615 187.431 C 707.866 175.416, 701.871 163.191, 691.773 157.164 L 686.183 153.827 690.126 148.198 C 700.224 133.783, 698.558 116.980, 685.901 105.601 C 676.889 97.498, 674.286 97, 640.982 97 L 612.038 97 611.493 99.250 M 732.065 98.878 C 730.610 101.597, 730.582 211.350, 732.035 214.066 C 733.034 215.932, 734.578 216, 775.835 216 C 820.836 216, 821 215.984, 821 211.500 C 821 207.042, 820.613 207, 779.809 207 L 741.017 207 740.759 152.250 L 740.500 97.500 736.815 97.194 C 733.966 96.956, 732.889 97.338, 732.065 98.878 M 892 98.507 C 874.913 102.672, 859.333 114.757, 852.095 129.458 C 847.693 138.401, 846 146.094, 846 157.158 C 846 174.387, 852.412 188.870, 865.137 200.386 C 880.476 214.267, 901.016 219.239, 921.443 214.015 C 931.281 211.498, 938.551 207.336, 946.900 199.438 C 962.245 184.923, 968.786 164.710, 964.629 144.648 C 960.093 122.756, 942.184 104.446, 919.540 98.552 C 912.375 96.686, 899.555 96.666, 892 98.507 M 1037.116 99.044 C 1018.518 103.915, 1002.511 118.336, 995.239 136.775 C 992.882 142.751, 992.582 144.892, 992.543 156 C 992.507 166.540, 992.863 169.549, 994.812 175.190 C 1000.824 192.592, 1016.040 207.736, 1032.928 213.128 C 1042.052 216.040, 1057.350 216.706, 1066.387 214.583 C 1092.139 208.534, 1112.854 183.261, 1111.794 159.185 L 1111.500 152.500 1081.621 152.235 C 1059.791 152.041, 1051.358 152.288, 1050.320 153.150 C 1049.501 153.829, 1049.025 155.638, 1049.199 157.415 L 1049.500 160.500 1075.887 160.767 L 1102.275 161.034 1101.663 166.196 C 1101.327 169.035, 1099.492 174.644, 1097.585 178.659 C 1091.843 190.749, 1082.156 199.514, 1069.419 204.142 C 1061.340 207.078, 1044.960 207.317, 1037 204.615 C 1015.524 197.326, 1002 178.705, 1002 156.424 C 1002 116.794, 1046.706 92.627, 1079.630 114.459 C 1084.905 117.957, 1092.362 125.302, 1094.982 129.580 C 1096.613 132.244, 1099.548 132.659, 1102.250 130.608 C 1104.997 128.522, 1104.347 125.944, 1099.526 119.802 C 1085.121 101.453, 1059.921 93.071, 1037.116 99.044 M 621 128.937 L 621 152 644.134 152 C 669.326 152, 672.752 151.477, 678.473 146.762 C 684.013 142.195, 686.440 136.716, 686.413 128.832 C 686.393 123.206, 685.925 121.414, 683.418 117.359 C 681.598 114.415, 678.552 111.380, 675.555 109.526 L 670.663 106.500 645.832 106.187 L 621 105.873 621 128.937 M 896.500 107.022 C 870.584 112.224, 853.016 135.460, 855.480 161.277 C 857.136 178.635, 866.459 192.636, 881.809 200.817 C 910.239 215.971, 945.352 201.100, 954.414 170.068 C 956.454 163.083, 956.449 149.893, 954.405 142.932 C 947.092 118.034, 921.306 102.043, 896.500 107.022 M 621 184.054 L 621 207.108 651.250 206.804 L 681.500 206.500 686.223 203.723 C 694.806 198.678, 698.870 187.659, 696.033 177.124 C 694.383 170.993, 686.977 163.735, 680.779 162.175 C 677.768 161.416, 666.346 161, 648.557 161 L 621 161 621 184.054 M 394.750 194.689 C 393.788 194.941, 393 196.014, 393 197.073 C 393 200.500, 389.209 203.296, 385.400 202.677 C 382.589 202.221, 381.524 202.630, 379.035 205.119 C 376.029 208.125, 372.981 216.141, 373.022 220.932 C 373.061 225.507, 376.636 231.731, 380.813 234.495 C 389.409 240.184, 402.567 238.128, 411.753 229.660 C 427.530 215.117, 421.678 193.705, 402.038 194.116 C 398.992 194.180, 395.712 194.438, 394.750 194.689 M 612.200 288.200 C 611.295 289.105, 611 303.337, 611 346.118 C 611 377.313, 611.273 403.548, 611.607 404.418 C 612.139 405.805, 615.444 406, 638.397 406 C 658.713 406, 665.915 405.655, 670.540 404.461 C 710.366 394.181, 728.361 348.630, 706.139 314.354 C 698.277 302.229, 684.093 292.214, 669.540 288.515 C 661.813 286.551, 614.111 286.289, 612.200 288.200 M 741.463 288.239 C 741.198 288.933, 741.098 315.600, 741.240 347.500 L 741.500 405.500 784.384 405.761 C 815.213 405.948, 827.653 405.703, 828.634 404.888 C 830.321 403.489, 830.412 399.812, 828.800 398.200 C 827.908 397.308, 817.644 397, 788.800 397 L 750 397 750 374.012 L 750 351.024 787.141 350.762 C 820.594 350.526, 824.387 350.334, 825.337 348.828 C 826.087 347.638, 826.053 346.411, 825.217 344.578 L 824.043 342 787.021 342 L 750 342 750 319 L 750 296 789.481 296 L 828.962 296 829.628 293.345 C 831.132 287.352, 832.389 287.525, 785.114 287.239 C 751.114 287.034, 741.843 287.246, 741.463 288.239 M 621 346.500 L 621 397 640.750 396.983 C 667.804 396.959, 675.266 395.220, 687.312 386.131 C 693.144 381.731, 700.267 371.568, 703.010 363.735 C 711.362 339.880, 700.699 312.829, 678.677 302.006 C 667.905 296.712, 663.361 296, 640.364 296 L 621 296 621 346.500 M 659.305 488.750 C 633.759 542.773, 611.625 592.581, 612.339 594.442 C 612.740 595.485, 614.229 596, 616.846 596 L 620.754 596 626.538 583 L 632.322 570 669.220 570 L 706.119 570 712.226 583 L 718.334 596 722.667 596 C 726.265 596, 727 595.676, 727 594.090 C 727 593.040, 720.872 578.752, 713.382 562.340 C 696.821 526.049, 695.305 522.752, 690.235 512 C 688.030 507.325, 684.227 499.225, 681.783 494 C 672.962 475.140, 674.325 477, 669.317 477 L 664.861 477 659.305 488.750 M 756.200 478.200 C 754.783 479.617, 754.460 592.600, 755.867 594.819 C 756.391 595.646, 758.159 596.019, 760.602 595.819 L 764.500 595.500 765 544.500 L 765.500 493.500 785 520.167 C 795.725 534.833, 812.579 557.916, 822.453 571.462 L 840.406 596.090 845.453 595.795 L 850.500 595.500 850.758 537.612 C 850.951 494.469, 850.718 479.365, 849.843 478.311 C 849.170 477.500, 847.355 477.026, 845.585 477.199 L 842.500 477.500 842 529 L 841.500 580.500 835.934 573 C 832.873 568.875, 816.492 546.600, 799.531 523.500 C 782.571 500.400, 767.785 480.488, 766.673 479.250 C 764.423 476.745, 758.271 476.129, 756.200 478.200 M 875.482 478.189 C 875.207 478.910, 875.098 505.600, 875.240 537.500 L 875.500 595.500 879.500 595.500 L 883.500 595.500 883.500 536.500 L 883.500 477.500 879.742 477.189 C 877.324 476.989, 875.805 477.346, 875.482 478.189 M 907.480 478.195 C 907.206 478.913, 907.098 505.600, 907.240 537.500 L 907.500 595.500 910.815 595.818 C 917.250 596.436, 916.992 598.447, 917.084 547.128 L 917.167 500.500 922.795 512 C 925.891 518.325, 935.927 539.700, 945.097 559.500 L 961.771 595.500 966.714 595.796 L 971.657 596.093 987.460 562.296 C 996.151 543.708, 1006.241 522.128, 1009.881 514.341 L 1016.500 500.182 1016.760 546.750 C 1016.946 580.136, 1017.347 593.713, 1018.174 594.710 C 1018.872 595.551, 1020.746 595.982, 1022.914 595.801 L 1026.500 595.500 1026.500 536.500 L 1026.500 477.500 1021.807 477.198 C 1017.819 476.940, 1016.887 477.243, 1015.593 479.217 C 1014.757 480.494, 1008.929 492.780, 1002.642 506.520 C 992.653 528.353, 987.891 538.584, 971.350 573.750 C 969.474 577.737, 967.570 581, 967.119 581 C 966.667 581, 964.024 576.163, 961.246 570.250 C 958.467 564.337, 948.511 543.075, 939.121 523 C 915.487 472.475, 918.415 477.559, 912.740 477.195 C 909.514 476.988, 907.819 477.310, 907.480 478.195 M 1105.428 479.470 C 1104.498 480.889, 1094.977 501.276, 1084.270 524.775 C 1073.563 548.274, 1062.168 573.255, 1058.947 580.288 C 1055.727 587.322, 1053.345 593.735, 1053.653 594.538 C 1054.353 596.363, 1061.542 596.532, 1062.682 594.750 C 1063.121 594.063, 1065.763 588.325, 1068.552 582 L 1073.623 570.500 1110.835 570.500 L 1148.047 570.500 1153.842 583 L 1159.636 595.500 1164.054 595.500 C 1167.330 595.500, 1168.553 595.081, 1168.784 593.882 C 1169.043 592.537, 1129.413 505.549, 1118.724 484 C 1115.589 477.680, 1115.384 477.492, 1111.309 477.195 C 1107.733 476.935, 1106.870 477.269, 1105.428 479.470 M 1198.114 478.362 C 1197.295 479.349, 1197.055 495.690, 1197.242 537.612 L 1197.500 595.500 1227.250 595.765 L 1257 596.030 1257 591.515 L 1257 587 1232 587 L 1207 587 1207 533.200 C 1207 492.689, 1206.704 479.104, 1205.800 478.200 C 1204.180 476.580, 1199.511 476.679, 1198.114 478.362 M 669.064 490 C 669.024 490.275, 661.836 506.250, 653.089 525.500 L 637.187 560.500 653.657 560.774 C 662.716 560.925, 677.264 560.925, 685.987 560.774 L 701.847 560.500 686.650 527.500 C 678.292 509.350, 670.932 493.375, 670.295 492 C 669.657 490.625, 669.103 489.725, 669.064 490 M 1106.989 498.750 C 1105.134 503.012, 1098.340 517.841, 1091.890 531.703 C 1085.441 545.565, 1079.872 557.827, 1079.515 558.953 C 1078.869 560.987, 1079.073 561, 1111.350 561 L 1143.835 561 1134.591 540.750 C 1117.738 503.832, 1111.654 491, 1111.004 491 C 1110.651 491, 1108.844 494.488, 1106.989 498.750" stroke="none" fill="#ffffff" fill-rule="evenodd"/><path d="M 395.258 148.108 C 387.892 149.335, 376.509 153.467, 370.012 157.272 C 366.980 159.048, 361.002 164.020, 356.726 168.322 C 347.482 177.623, 343.044 185.702, 339.427 199.815 C 335.262 216.060, 326.124 237.361, 318.497 248.599 C 317.097 250.663, 316.087 252.762, 316.254 253.263 C 316.421 253.764, 318.795 254.967, 321.529 255.936 C 330.463 259.102, 352.943 271.202, 353.032 272.892 C 353.049 273.226, 353.690 274.327, 354.456 275.337 C 355.793 277.101, 356.018 277.074, 360.174 274.643 C 367.429 270.398, 394.492 259.527, 406.616 255.987 C 437.028 247.107, 464.934 211.966, 461.485 186.892 L 460.819 182.051 457.160 184.902 C 452.357 188.643, 448.004 190, 440.805 190 C 435.878 190, 434.506 189.596, 432.455 187.545 C 429.361 184.452, 429.337 181.572, 432.381 178.529 C 434.353 176.556, 435.701 176.170, 440.247 176.276 C 446.391 176.420, 450.369 174.479, 452.211 170.437 C 453.167 168.339, 452.978 167.598, 450.915 165.357 C 445.745 159.742, 436.435 153.909, 428.788 151.493 C 415.266 147.221, 406.117 146.298, 395.258 148.108 M 390.145 171.070 C 385.722 172.841, 381.956 176.166, 379.977 180.044 C 377.297 185.298, 377.343 193.201, 380.080 197.629 L 382.160 200.995 378.741 204.990 C 369.956 215.253, 371.535 230.181, 381.985 235.652 C 397.587 243.821, 420.896 229.513, 420.978 211.718 C 421.035 199.248, 411.162 191.395, 398.327 193.702 C 393.432 194.581, 393.095 194.504, 392.077 192.269 C 390.530 188.874, 390.734 187.266, 393 185 C 395.691 182.309, 397.058 182.470, 401.500 186 C 405.917 189.510, 408.245 189.755, 411 187 C 419.126 178.874, 402.454 166.140, 390.145 171.070 M 346.433 314.130 C 343.386 320.023, 332.344 336.832, 326.197 344.937 L 322.832 349.374 326.767 351.437 C 334.796 355.647, 340 364.729, 340 374.533 C 340 386.288, 330.705 397.495, 314.662 405.082 C 309.370 407.585, 306.375 408.436, 295.139 410.633 C 292.852 411.079, 292.799 411.306, 293.464 417.797 C 294.523 428.126, 294.861 429, 297.791 429 C 299.206 429, 304.294 428.496, 309.097 427.880 C 316.697 426.905, 318.550 426.987, 323.383 428.507 C 342.399 434.488, 348.111 457.345, 334.284 472.127 C 326.454 480.499, 317.333 485.324, 301.250 489.605 C 299.283 490.128, 299.543 508.903, 301.557 511.777 C 304.982 516.668, 311.531 514.049, 328.938 500.825 C 347.486 486.734, 361.437 467.202, 368.853 444.941 C 372.349 434.449, 375 421.914, 375 415.880 C 375 410.156, 377.351 405.201, 380.434 404.427 C 383.273 403.715, 383.532 402.073, 382.352 392.250 C 381.867 388.215, 381.327 387, 380.016 387 C 377.251 387, 375.086 383.733, 374.005 377.930 C 372.441 369.532, 367.312 352.579, 362.869 341.126 C 358.815 330.676, 350.635 313.240, 349.034 311.635 C 348.548 311.149, 347.409 312.242, 346.433 314.130 M 279 463.576 C 269.400 470.918, 251.757 481.994, 241 487.431 C 237.975 488.959, 235.151 490.534, 234.725 490.930 C 234.298 491.326, 234.256 497.390, 234.631 504.405 C 235.276 516.469, 235.446 517.246, 237.758 518.761 C 240.989 520.878, 243.112 520.031, 255.897 511.520 C 265.321 505.246, 280.947 491.062, 284.633 485.437 C 285.989 483.368, 286.127 481.195, 285.521 471.493 C 285.126 465.172, 284.510 460.030, 284.151 460.067 C 283.793 460.104, 281.475 461.683, 279 463.576 M 143.500 473.640 C 139.650 475.011, 128.401 477.938, 118.503 480.146 C 108.605 482.354, 100.399 484.268, 100.268 484.398 C 99.795 484.872, 97.876 500.209, 98.244 500.577 C 98.451 500.785, 101.651 501.384, 105.355 501.908 C 113.364 503.042, 119.974 506.604, 122.921 511.372 C 126.042 516.422, 127.053 523.361, 125.526 529.248 C 122.377 541.387, 103.831 552.145, 84.140 553.254 C 79.934 553.491, 79.675 553.699, 76.860 559.107 C 73.647 565.281, 73.968 568.842, 77.929 570.962 C 82.758 573.546, 104.773 567.523, 116.482 560.414 C 133.772 549.917, 144.694 533.742, 150.525 510 C 152.771 500.853, 153.819 470.971, 151.890 471.074 C 151.126 471.115, 147.350 472.270, 143.500 473.640 M 50.125 485.780 C 37.546 498.262, 35.979 500.860, 38.905 504.386 C 42.569 508.801, 70.417 510.859, 81.008 507.497 C 82.783 506.934, 83.470 504.150, 85.356 489.867 L 85.836 486.234 80.383 485.782 C 74.289 485.276, 67.995 481.580, 64.515 476.463 L 62.500 473.500 50.125 485.780" stroke="none" fill="#7dce5c" fill-rule="evenodd"/><path d="M 438.971 236.750 L 432.500 243.500 439.250 237.029 C 445.520 231.018, 446.457 230, 445.721 230 C 445.568 230, 442.530 233.037, 438.971 236.750 M 132.432 316.279 C 118.862 328.424, 107 341.193, 107 343.656 C 107 344.417, 107.975 344.950, 109.250 344.884 C 110.943 344.797, 111.067 344.655, 109.750 344.311 C 108.787 344.059, 108 343.506, 108 343.082 C 108 341.168, 122.752 325.955, 137.500 312.660 C 139.700 310.677, 141.275 309.055, 141 309.056 C 140.725 309.057, 136.869 312.307, 132.432 316.279 M 294 380.500 C 289.903 384.625, 286.775 388, 287.050 388 C 287.325 388, 290.903 384.625, 295 380.500 C 299.097 376.375, 302.225 373, 301.950 373 C 301.675 373, 298.097 376.375, 294 380.500 M 336.469 385.099 C 336.076 386.336, 333.688 389.632, 331.161 392.424 L 326.567 397.500 330.866 393.500 C 335.081 389.578, 338.619 384.286, 337.665 383.332 C 337.400 383.066, 336.861 383.861, 336.469 385.099 M 323.154 399.314 C 322.554 400.037, 319.801 401.688, 317.035 402.984 C 314.269 404.279, 312.185 405.518, 312.403 405.737 C 313.036 406.369, 322.490 401.320, 323.935 399.578 C 324.656 398.710, 325.020 398, 324.745 398 C 324.470 398, 323.754 398.591, 323.154 399.314 M 263.649 407.300 C 255.514 414.059, 253.746 415.935, 259.579 411.617 C 264.850 407.715, 269.040 403.893, 267.872 404.050 C 267.668 404.078, 265.767 405.540, 263.649 407.300 M 71.196 433.750 L 71 441 76.250 440.820 L 81.500 440.640 76.794 440.267 L 72.089 439.894 71.740 433.197 L 71.392 426.500 71.196 433.750 M 151.221 470.684 C 152.720 471.077, 152.983 472.846, 153.253 484.318 L 153.563 497.500 153.782 483.750 C 153.999 470.062, 153.990 470.001, 151.750 470.116 C 150.102 470.201, 149.961 470.353, 151.221 470.684 M 166.378 482 C 166.378 488.325, 166.541 490.913, 166.739 487.750 C 166.937 484.587, 166.937 479.413, 166.739 476.250 C 166.541 473.087, 166.378 475.675, 166.378 482 M 49.736 484.764 C 42.731 491.784, 37 497.785, 37 498.100 C 37 498.414, 42.737 492.869, 49.750 485.776 C 60.562 474.840, 62.652 473.135, 63.500 474.559 C 64.050 475.482, 65.313 477.196, 66.307 478.369 C 67.572 479.861, 67.422 479.227, 65.807 476.258 C 64.538 473.924, 63.269 472.012, 62.986 472.008 C 62.703 472.003, 56.740 477.744, 49.736 484.764 M 286.185 478.945 C 286.037 483.306, 285.457 484.999, 283.273 487.445 L 280.546 490.500 283.831 487.423 C 286.894 484.554, 287.091 483.977, 286.743 478.923 L 286.370 473.500 286.185 478.945 M 340.473 491.250 L 333.500 498.500 340.750 491.527 C 344.738 487.692, 348 484.429, 348 484.277 C 348 483.543, 346.950 484.516, 340.473 491.250 M 234.089 490.393 C 233.318 491.321, 233.039 495.577, 233.252 503.143 L 233.572 514.500 233.786 502.950 C 233.923 495.567, 234.433 490.967, 235.200 490.200 C 235.860 489.540, 236.140 489, 235.822 489 C 235.505 489, 234.725 489.627, 234.089 490.393 M 299.168 499.691 C 299.076 505.846, 299.337 511.092, 299.750 511.349 C 300.163 511.606, 300.379 508.145, 300.231 503.658 C 299.768 489.640, 299.343 488.054, 299.168 499.691 M 265.385 504.779 C 263.672 506.276, 260.747 508.749, 258.885 510.275 C 256.743 512.030, 257.355 511.773, 260.550 509.575 C 264.977 506.529, 270.051 501.946, 268.905 502.029 C 268.682 502.045, 267.098 503.283, 265.385 504.779 M 116.817 506.982 C 119.081 508.623, 121.829 511.660, 122.923 513.732 C 124.017 515.805, 124.930 517.050, 124.952 516.500 C 125.072 513.539, 116.337 504, 113.506 504 C 113.062 504, 114.553 505.342, 116.817 506.982 M 43.682 507.959 C 44.882 508.468, 48.707 509.118, 52.182 509.403 C 58.310 509.906, 58.350 509.894, 53.500 509.016 C 43.353 507.180, 41.335 506.963, 43.682 507.959 M 81.852 507.482 C 81.587 507.746, 78.924 508.406, 75.935 508.948 L 70.500 509.932 76.449 509.434 C 82.307 508.943, 83.819 508.485, 82.833 507.500 C 82.558 507.225, 82.117 507.217, 81.852 507.482 M 123.018 532.957 C 121.854 535.766, 116.907 540.811, 112.421 543.764 C 111.364 544.460, 111.850 544.385, 113.500 543.600 C 118.203 541.359, 126.232 531.898, 124.716 530.382 C 124.470 530.137, 123.706 531.295, 123.018 532.957 M 129.500 550.241 C 124.470 555.374, 123.221 556.988, 126.135 554.588 C 129.980 551.419, 138.820 541.909, 137.800 542.038 C 137.635 542.058, 133.900 545.750, 129.500 550.241 M 77.945 554.644 C 77.392 556.098, 76.695 557.786, 76.396 558.394 C 76.097 559.002, 76.560 558.626, 77.426 557.559 C 78.292 556.491, 79 555.052, 79 554.361 C 79 553.559, 80.897 552.972, 84.250 552.737 L 89.500 552.370 84.225 552.185 C 79.367 552.015, 78.871 552.209, 77.945 554.644" stroke="none" fill="#080b05" fill-rule="evenodd"/><path d="" stroke="none" fill="#c9c48f" fill-rule="evenodd"/></svg>